<?xml version="1.0" encoding="utf-8"?>
<svg width="96" height="96" viewBox="0 0 96 96" class="css-1j8o68f" xmlns="http://www.w3.org/2000/svg">
  <defs id="SvgjsDefs2059">
    <linearGradient id="SvgjsLinearGradient2064">
      <stop id="SvgjsStop2065" stop-color="#7d141d" offset="0"/>
      <stop id="SvgjsStop2066" stop-color="#ff1e27" offset="1"/>
    </linearGradient>
  </defs>
  <rect style="fill: rgb(17, 17, 17);" x="0" y="0" width="96" height="96" rx="10" ry="10"/>
  <g id="g-1" featurekey="nameFeature-0" transform="matrix(2.032393, 0, 0, 2.032393, 18.896135, -4.720267)" fill="url(#SvgjsLinearGradient2064)">
    <path d="M25.48 17.72 c1.16 2.32 1.96 4.96 1.96 8.16 s-0.84 6.4 -2.2 8.56 c-1.92 3.08 -7.56 5.76 -11.68 5.76 l-12.36 0 l0 -1.04 c0.92 0 1.76 -0.32 1.72 -1.12 l0 -24.2 c0 -0.8 -0.84 -1.12 -1.72 -1.12 l0 -1.04 l12.88 0 c5.32 0 9.8 2.8 11.4 6.04 z M12.6 37.52 c5.84 0 10 -4.28 10 -11.92 s-5.56 -11.4 -10.08 -11.36 l-5.8 0.04 l0 23.32 c2.04 -0.04 3.36 -0.08 5.88 -0.08 z"/>
  </g>
</svg>